HIERARCHY
ROOT Hips
{
 OFFSET 0.000000 0.000000 0.000000
 CHANNELS 6 Xposition Yposition Zposition Yrotation Xrotation Zrotation
 JOINT Chest
 {
  OFFSET 0.000000 9.857222 0.000240
  CHANNELS 3 Yrotation Xrotation Zrotation
  JOINT Chest2
  {
   OFFSET 0.000000 10.876940 -0.000436
   CHANNELS 3 Yrotation Xrotation Zrotation
   JOINT Chest3
   {
    OFFSET 0.000000 9.827798 0.000000
    CHANNELS 3 Yrotation Xrotation Zrotation
    JOINT Chest4
    {
     OFFSET 0.000000 9.827798 0.000000
     CHANNELS 3 Yrotation Xrotation Zrotation
     JOINT Neck
     {
      OFFSET 0.000000 13.831992 0.000000
      CHANNELS 3 Yrotation Xrotation Zrotation
      JOINT Head
      {
       OFFSET 0.000000 9.147643 -0.001036
       CHANNELS 3 Yrotation Xrotation Zrotation
       End Site
       {
        OFFSET 0.000000 17.515799 -0.000541
       }
      }
     }
     JOINT RightCollar
     {
      OFFSET -3.001579 7.717577 0.000000
      CHANNELS 3 Yrotation Xrotation Zrotation
      JOINT RightShoulder
      {
       OFFSET -14.002642 0.000000 0.000000
       CHANNELS 3 Yrotation Xrotation Zrotation
       JOINT RightElbow
       {
        OFFSET -30.053852 0.000000 0.000000
        CHANNELS 3 Yrotation Xrotation Zrotation
        JOINT RightWrist
        {
         OFFSET -24.564923 0.000000 -0.000000
         CHANNELS 3 Yrotation Xrotation Zrotation
         End Site
         {
          OFFSET -18.334355 0.000000 0.000000
         }
        }
       }
      }
     }
     JOINT LeftCollar
     {
      OFFSET 3.001579 7.717577 0.000000
      CHANNELS 3 Yrotation Xrotation Zrotation
      JOINT LeftShoulder
      {
       OFFSET 14.002642 0.000000 0.000000
       CHANNELS 3 Yrotation Xrotation Zrotation
       JOINT LeftElbow
       {
        OFFSET 30.053852 0.000000 0.000000
        CHANNELS 3 Yrotation Xrotation Zrotation
        JOINT LeftWrist
        {
         OFFSET 24.564923 0.000000 -0.000000
         CHANNELS 3 Yrotation Xrotation Zrotation
         End Site
         {
          OFFSET 18.334355 0.000000 0.000000
         }
        }
       }
      }
     }
    }
   }
  }
 }
 JOINT RightHip
 {
  OFFSET -8.003235 -0.001175 -0.000120
  CHANNELS 3 Yrotation Xrotation Zrotation
  JOINT RightKnee
  {
   OFFSET 0.000000 -41.759727 0.000113
   CHANNELS 3 Yrotation Xrotation Zrotation
   JOINT RightAnkle
   {
    OFFSET 0.000000 -40.728748 0.000159
    CHANNELS 3 Yrotation Xrotation Zrotation
    JOINT RightToe
    {
     OFFSET 0.000000 -6.515296 14.732841
     CHANNELS 3 Yrotation Xrotation Zrotation
     End Site
     {
      OFFSET 0.000000 -1.502839 6.412115
     }
    }
   }
  }
 }
 JOINT LeftHip
 {
  OFFSET 8.003235 -0.001175 -0.000120
  CHANNELS 3 Yrotation Xrotation Zrotation
  JOINT LeftKnee
  {
   OFFSET 0.000000 -41.759727 0.000113
   CHANNELS 3 Yrotation Xrotation Zrotation
   JOINT LeftAnkle
   {
    OFFSET 0.000000 -40.728748 0.000159
    CHANNELS 3 Yrotation Xrotation Zrotation
    JOINT LeftToe
    {
     OFFSET 0.000000 -6.515296 14.732841
     CHANNELS 3 Yrotation Xrotation Zrotation
     End Site
     {
      OFFSET 0.000000 -1.502839 6.412115
     }
    }
   }
  }
 }
}
MOTION
Frames: 12
Frame Time: 0.016667
0.000000 88.822259 0.000000 0.000000 -5.826342 0.000000 0.000000 11.116423 0.000000 0.000000 -5.290081 0.000000 0.000000 0.000000 0.000000 0.000000 0.000000 0.000000 0.000000 12.665069 0.000000 0.000000 0.575450 0.000000 0.000000 0.000000 0.000000 0.000000 0.000000 0.000000 2.337306 0.000000 0.000000 -2.337306 0.000000 0.000000 0.000000 0.000000 0.000000 0.000000 0.000000 0.000000 -2.337306 0.000000 0.000000 2.337306 0.000000 0.000000 0.000000 8.578828 0.000000 0.000000 1.905768 0.000000 0.000000 -4.658254 0.000000 0.000000 0.000000 0.000000 0.000000 8.578828 0.000000 0.000000 1.905768 0.000000 0.000000 -4.658254 0.000000 0.000000 0.000000 0.000000
7.075797 89.433311 23.720389 -34.634395 -12.606143 -0.072800 2.578803 6.300989 -0.973305 0.891138 3.043093 -0.200242 0.891138 3.043093 -0.200242 0.669195 2.282034 -0.154587 -7.943002 21.571474 2.609791 -15.112376 4.567950 6.939772 6.581062 3.218819 9.974885 44.691233 -7.737600 80.084069 21.557213 12.688788 -1.757351 -1.980135 5.036696 -8.097554 -23.806248 7.689128 -11.858776 -22.604972 10.879798 -59.952563 -36.815304 -24.969042 9.303055 -8.036713 10.812877 5.955115 6.345172 25.235513 -7.809404 -2.442080 -7.105230 6.021414 -2.885142 -4.696572 2.179771 -0.553083 -0.650827 0.065490 13.355744 7.310076 3.126969 -4.565221 13.781123 0.504184 0.641065 -8.142433 -1.252561 0.092310 0.666587 -0.012948
7.114664 89.550205 23.764688 -34.792795 -12.730028 -0.076368 2.685460 6.268961 -0.974802 0.932117 3.028221 -0.197504 0.932117 3.028221 -0.197504 0.699904 2.270871 -0.152716 -7.962291 21.571292 2.649653 -15.158240 4.575896 7.016746 6.604849 3.241770 9.950165 44.723247 -8.002136 79.992864 21.751813 13.163751 -1.544192 -1.923718 5.086619 -8.012398 -23.794500 7.634056 -11.850046 -22.527704 10.899425 -59.986995 -36.308373 -24.949699 9.006585 -8.059857 10.800130 5.987658 6.549036 25.264548 -7.694731 -2.729596 -6.904472 5.887703 -2.677396 -4.681752 2.290788 -0.621667 -0.707777 0.012898 13.096986 7.888012 3.035155 -4.016028 12.969201 0.770649 0.430195 -7.791530 -1.353695 0.109900 0.668276 0.010630
7.110422 89.661349 23.824683 -34.940187 -12.872217 -0.041074 2.778853 6.249139 -1.001618 0.965801 3.016395 -0.202943 0.965801 3.016395 -0.202943 0.725186 2.261982 -0.156943 -7.981142 21.565568 2.687223 -15.203180 4.573263 7.090158 6.621742 3.250041 9.917593 44.753772 -8.287018 79.914291 21.954628 13.486634 -1.404966 -1.882120 5.088110 -7.937809 -23.793997 7.589629 -11.837217 -22.451265 10.951588 -59.997404 -35.857283 -24.977695 8.726379 -8.079790 10.805057 6.023056 6.750845 25.336558 -7.623162 -3.091693 -6.692766 5.778379 -2.399037 -4.726335 2.407211 -0.710211 -0.724146 -0.047967 12.967570 8.595908 2.902680 -3.372778 11.975062 1.125762 0.141541 -7.382698 -1.489685 0.131644 0.675608 0.028028
7.109796 89.757801 23.901137 -35.107986 -12.907072 0.015376 2.907307 6.125821 -1.032614 0.984080 2.999649 -0.213685 0.984080 2.999649 -0.213685 0.738941 2.249400 -0.165061 -7.998848 21.561350 2.713512 -15.242802 4.571629 7.142760 6.630334 3.287600 9.878886 44.855259 -8.604752 79.875425 22.162335 13.643486 -1.379083 -1.847346 5.043411 -7.872468 -23.775857 7.537028 -11.829893 -22.404910 11.052360 -60.033163 -35.474357 -25.023484 8.504568 -8.105084 10.801409 6.042909 6.816102 25.334828 -7.668421 -3.284842 -6.535511 5.719227 -2.168654 -4.801977 2.501498 -0.853157 -0.706973 -0.115863 12.973263 9.192431 2.811011 -3.021547 11.004772 1.304107 0.044463 -6.995524 -1.557784 0.134729 0.676428 0.036640
7.077078 89.835818 23.987483 -35.245283 -12.922971 0.018878 3.039969 5.973459 -1.011911 0.989876 2.984090 -0.230491 0.989876 2.984090 -0.230491 0.743366 2.237702 -0.177667 -8.013119 21.561747 2.733078 -15.273945 4.577094 7.181764 6.635245 3.341784 9.865006 45.018189 -8.911891 79.822080 22.418552 13.661903 -1.322959 -1.841612 5.020826 -7.878001 -23.757327 7.499761 -11.821690 -22.359226 11.205906 -60.070361 -35.213196 -25.093300 8.336749 -8.128322 10.804482 6.049718 6.791166 25.349389 -7.696442 -3.335575 -6.458585 5.688662 -2.034080 -4.879283 2.494926 -0.924673 -0.670931 -0.126924 13.088581 9.703749 2.848715 -3.074885 10.165551 1.316236 0.140584 -6.706249 -1.580511 0.139562 0.686074 0.048109
7.057331 89.896341 24.120108 -35.293463 -13.010134 0.097300 3.117374 5.856406 -1.063344 0.978440 2.985851 -0.251410 0.978440 2.985851 -0.251410 0.734894 2.238993 -0.193300 -8.023504 21.563703 2.741631 -15.294887 4.583308 7.199700 6.637719 3.400987 9.864257 45.253738 -9.189185 79.783626 22.640829 13.744222 -1.345698 -1.831890 5.016874 -7.871702 -23.737383 7.446724 -11.800841 -22.293768 11.415997 -60.100955 -35.064365 -25.183794 8.195812 -8.152105 10.816979 6.041528 6.540389 25.505456 -7.921666 -3.109514 -6.474265 5.672929 -1.981159 -4.967376 2.534357 -1.108144 -0.631187 -0.177022 13.125319 10.290586 2.879240 -3.463202 9.381339 1.124164 0.391956 -6.439110 -1.501657 0.143162 0.665956 0.059955
7.033845 89.941512 24.273636 -35.271329 -13.070480 0.145403 3.176153 5.719262 -1.084280 0.953600 2.986983 -0.275243 0.953600 2.986983 -0.275243 0.716384 2.239815 -0.211051 -8.035214 21.566098 2.742151 -15.315971 4.589305 7.203470 6.642339 3.419638 9.884059 45.443504 -9.410069 79.781618 22.812952 14.042772 -1.411168 -1.799256 5.018785 -7.838441 -23.723285 7.397744 -11.773109 -22.179604 11.604224 -60.121373 -34.973522 -25.151371 8.049000 -8.178211 10.826311 6.030073 6.268164 25.694745 -8.127269 -3.009482 -6.547656 5.685198 -1.829185 -5.068366 2.536108 -1.236643 -0.577446 -0.206675 13.086278 10.807025 2.925471 -3.855329 8.696478 0.901856 0.605498 -6.259120 -1.392494 0.145865 0.663000 0.070174
7.040024 89.972229 24.439132 -35.125433 -13.127665 0.198056 3.138924 5.632469 -1.129185 0.929295 2.970676 -0.297198 0.929295 2.970676 -0.297198 0.698261 2.227562 -0.227370 -8.053172 21.567212 2.737202 -15.346956 4.592923 7.199223 6.656657 3.427798 9.918333 45.530809 -9.599336 79.789715 22.976389 14.516964 -1.401725 -1.769678 5.048698 -7.868441 -23.687166 7.386801 -11.751284 -22.026224 11.754045 -60.086840 -34.940987 -24.953895 7.865928 -8.209272 10.837898 6.011538 6.007365 25.919751 -8.292014 -3.125482 -6.633852 5.660438 -1.651776 -5.176345 2.576795 -1.318362 -0.514561 -0.239288 12.632173 11.197674 2.787157 -3.824169 8.278726 0.838455 0.693545 -6.174601 -1.323519 0.142566 0.632660 0.071820
7.081944 89.991738 24.610599 -34.895133 -13.195003 0.227775 3.035871 5.616953 -1.176213 0.914051 2.938717 -0.313457 0.914051 2.938717 -0.313457 0.686896 2.203576 -0.239440 -8.078323 21.562465 2.734069 -15.391977 4.586921 7.200902 6.659339 3.437457 9.953303 45.574606 -9.752734 79.744943 23.170753 15.040172 -1.275015 -1.739425 5.053134 -7.934919 -23.655353 7.381630 -11.731093 -21.866932 11.894996 -59.985867 -34.967559 -24.661961 7.686934 -8.239367 10.845048 5.985541 5.876634 26.154849 -8.321953 -3.205945 -6.688337 5.505910 -1.790858 -5.333016 2.698994 -1.328343 -0.426778 -0.272108 12.014767 11.458090 2.531751 -3.587224 8.124728 0.918256 0.717480 -6.201732 -1.277111 0.129267 0.601451 0.060933
7.165135 90.006630 24.767905 -34.626168 -13.290954 0.186068 2.928363 5.640610 -1.169842 0.909819 2.905895 -0.321466 0.909819 2.905895 -0.321466 0.683748 2.178949 -0.245378 -8.114138 21.555845 2.739251 -15.458734 4.580095 7.220638 6.660428 3.473687 9.994339 45.581340 -9.866752 79.631132 23.407257 15.484926 -1.088833 -1.711879 5.057790 -7.967825 -23.636464 7.430357 -11.710154 -21.656665 11.923241 -59.844852 -35.027697 -24.276079 7.509336 -8.273150 10.810067 5.957485 5.948723 26.336270 -8.183253 -3.116013 -6.618375 5.274511 -2.222562 -5.552468 2.827751 -1.231571 -0.333668 -0.275428 11.292937 11.580452 2.255847 -3.228385 8.235582 1.074799 0.746982 -6.333754 -1.236461 0.103712 0.577618 0.041923
7.288461 90.028033 24.894940 -34.271516 -13.515172 0.099230 2.804505 5.728641 -1.134865 0.901150 2.904659 -0.320696 0.901150 2.904659 -0.320696 0.677243 2.178028 -0.244757 -8.159358 21.549983 2.756253 -15.545671 4.577692 7.264073 6.652259 3.482623 10.036937 45.607335 -9.920519 79.557910 23.624841 15.798694 -0.954074 -1.704113 5.115559 -7.947739 -23.654575 7.482849 -11.694358 -21.369036 11.856477 -59.693300 -35.167042 -23.980655 7.391796 -8.303173 10.816942 5.901604 5.808897 26.533185 -8.121769 -3.073933 -6.395447 5.157343 -2.421683 -5.787928 2.909372 -1.133021 -0.269267 -0.265644 10.426334 11.671254 1.994944 -2.783708 8.568823 1.221667 0.761476 -6.487173 -1.174424 0.091698 0.517553 0.025220
